<svg xmlns:svg="http://www.w3.org/2000/svg" xmlns="http://www.w3.org/2000/svg" width="400" height="100" viewBox="0 0 400 100" version="1.1"><g transform="translate(0,-952.36216)"><path d="m91.3 1022.4c0-0.6-0.8-0.7-6-0.5l-6 0.1 0.1-14.5c0.1-14 1.1-32.4 1.9-34.6 0.3-0.9 0.5-1 1.8-0.7 0.8 0.2 3.5 0.4 6 0.5 4.4 0.2 4.6 0.1 5.3-0.8 0.5-0.7 0.7-0.8 0.9-0.4 0.9 2.8 0.5 3.9-1.2 3.1-1.2-0.6-7.1-0.7-7.8-0.2-0.3 0.2-0.6 3-0.8 7.2-0.2 3.8-0.4 8.5-0.6 10.3l-0.3 3.4 3.5-0.2c2.7-0.1 3.7-0.4 4.4-1 0.9-0.8 0.9-0.8 0.9 0.4 0 1.7-0.4 3.2-0.9 3.2-0.2 0-0.4-0.3-0.4-0.6 0-0.6-2.8-1.1-6-1.1l-1.4 0 0.1 10.9c0.1 7.3-0.1 11.4-0.4 12.4l-0.5 1.5 2-0.3c1.1-0.2 2.7-0.3 3.6-0.3 1.1 0 1.9-0.3 2.5-0.9l0.9-0.9 0 1.1c0 1.3-0.8 3.3-1.4 3.3-0.2 0-0.4-0.3-0.4-0.7zm41.9-2.6c-1-0.3-1-1.5 0.1-1.5 0.5 0 0.9-0.1 0.9-0.2 0-0.1-0.7-2.4-1.5-5.1-0.9-2.7-2.6-9.2-3.9-14.4-3.4-14-8.6-30.5-9.7-31.5-0.9-0.7-0.9-0.8-0.1-1.1 1-0.4 6.9-0.4 7.3 0 0.2 0.2 0.1 0.6-0.2 1-0.4 0.5 0.1 2.7 2.9 11.8 1.9 6.1 3.9 13.1 4.4 15.4 1.1 5.2 3.1 12.3 4.4 15.7 0.9 2.3 1 2.5 1.3 1.5 1.2-3.2 3.2-12.8 5.3-25.6 1.3-8 2.7-15.6 3.1-17 0.4-1.4 0.6-2.6 0.5-2.7-0.1-0.1-0.8-0.4-1.5-0.8-0.8-0.4-1.4-0.8-1.4-1 0-0.3 4.2 0.1 5.9 0.6 1.3 0.3 1.3 1 0 1-2.2 0-2.1-0.6-5.5 19.9-1.5 8.7-3.3 18.4-4.2 21.6-1.5 5.7-1.7 9-0.9 10.9 0.2 0.5 0.1 0.8-0.5 1-1 0.4-5.8 0.7-6.7 0.4zm-70.4-0.5c-1.2-0.2-1.3-1-0.1-1 0.5 0 1-0.2 1.1-0.4 0.6-1-2.8-9.8-9.2-24-2.1-4.8-4.8-11.2-5.9-14.3-1.1-3.1-2.2-5.9-2.4-6.3-0.2-0.4-1.1-0.7-2.4-0.8-2.1-0.1-2.6-0.6-1.2-1.3 1.2-0.6 9.8-1.5 10.7-1.1 0.7 0.3 0.7 0.4-0.6 0.9-0.8 0.3-1.4 0.8-1.4 1 0 0.6 2 6.2 3.7 10.2 0.8 1.9 2.2 5.3 3 7.6 3.2 8.1 9.2 21.5 9.5 21.2 0.3-0.4 5.1-20.2 7.1-29.6 1.2-5.5 2.3-10.5 2.4-11.1 0.2-0.9 0.1-1.2-0.7-1.4-0.6-0.1-1.5-0.3-2-0.3-1.4 0-0.8-0.7 0.8-1 1.5-0.3 4.7 0.1 4.7 0.6 0 0.2-0.5 0.5-1 0.8-0.7 0.3-1.1 0.9-1.2 1.9-0.5 3.4-4.5 21.6-6.7 30.2-2.5 10.1-3 14.9-1.7 16.8 0.6 0.9 0.6 1-0.2 1.4-0.8 0.4-4.5 0.5-6.4 0.1zm41.7-0.4c-2.1-0.3-5.4-0.7-7.3-0.9-2.8-0.2-3.3-0.4-2.9-0.9 0.3-0.4 1.4-0.6 3.2-0.6 1.5 0 2.9-0.2 3-0.5 0.4-0.6 2.3-21.8 2.8-31.3 0.2-4 0.5-12.6 0.5-19.1l0.1-11.7-1-0.1c-0.5-0.1-1-0.3-1-0.5 0-0.5 7.8-0.6 8.9-0.1 0.7 0.3 0.6 0.4-0.3 1.1l-1 0.8-0.5 16.8c-0.3 9.2-0.8 19.3-1.2 22.4-0.6 4.7-1.6 19.2-1.6 22.6 0 0.8 0.4 1 3.7 1.4 6 0.9 9.5-0.1 10.8-3 0.8-1.7 0.8-1.8 0-2.7-0.7-0.8-0.7-0.9 0-0.9 0.9 0 3.3 1.6 3.3 2.2 0 0.2-0.3 0.4-0.8 0.4-0.4 0-1.1 0.7-1.6 1.6-0.5 0.9-1.5 2.1-2.3 2.6-1.3 0.9-2 1-6.3 0.9-2.6 0-6.6-0.3-8.7-0.6zm61.6 0.1c-0.2-0.5-1.5-0.7-6.3-0.8-4.8-0.1-6.2-0.3-6.5-0.8-0.6-1-0.5-5.5 0.2-10.3 0.9-5.9 1.5-15.6 1.5-23.1 0-10.7 0.5-18.6 1.2-19.3 0.5-0.5 2-0.6 6.8-0.6 6.1 0 6.2 0 6.5 1 0.5 1.9 0.3 2.9-0.5 2.9-0.5 0-0.9-0.4-1-0.9-0.2-0.8-0.6-0.9-3.5-0.9-3 0-3.3 0.1-3.5 1-0.1 0.5-0.3 5.1-0.3 10.2 0 10.9-0.2 10.5 4.5 8.5 0.8-0.3 0.8-0.2 0.5 1.7-0.2 1.1-0.4 2.3-0.5 2.7-0.4 1.1-1 0.6-1-0.7 0-1.1-0.1-1.3-1.3-1.3-2.2 0-2.5 0.6-2.8 7.6-0.2 3.5-0.6 8.2-0.9 10.3-0.4 2.1-0.6 5.3-0.6 7l0 3.1 1.9 0.3c4 0.5 6.3-0.4 6.3-2.6 0-0.5 0.2-1 0.5-1 0.6 0 0.3 6.2-0.3 6.4-0.3 0.1-0.6-0.1-0.7-0.5zm9.5 0.3c-0.2-0.2 0-0.7 0.2-1.2 0.5-1 1.1-16.6 1.2-32.1 0-5 0.3-11.8 0.7-15.2 0.8-7.3 0.9-11.4 0.5-11.8-0.2-0.2-2.7-0.4-5.7-0.5-4.6-0.1-5.4-0.1-5.6 0.5-0.4 1-1 0.9-1-0.2 0-1.4 0.8-2.5 1.6-2.3 0.4 0.1 6.2 0.6 12.8 1.1 13.2 1 16.5 0.9 16.9-0.5 0.4-1.5 1.4-0.6 1.3 1.2-0.1 2.1-0.7 2.7-1.7 1.9-0.5-0.5-2.2-0.6-6.4-0.6l-5.6 0-0.5 1.8c-1.2 4.1-2.1 20.2-2.1 37.6 0 14.7 0.1 17.1 0.7 18.3l0.7 1.4-1.3 0.5c-1.4 0.5-6.1 0.6-6.5 0.2zM255.7 1050.7c-0.1-0.1-1.7-0.5-3.4-0.9-3.6-0.8-4.3-1.2-3.5-2.1 1.7-2 2.5-14.7 3.1-46.5 0.4-22 0.3-27.5-0.5-28.5-0.6-0.8 0.7-1.2 4.3-1.2 3.4 0 4 0.3 3.2 1.3-0.8 1-0.2 1.2 1.2 0.5 0.7-0.4 1.8-0.7 2.4-0.7 2.3 0 4.8 3.1 6.4 7.9 0.8 2.5 0.9 3.8 1 13.1 0.1 8.7-0.1 11-0.7 13.8-1.1 4.9-2.4 8-3.9 9.7-1.1 1.2-1.8 1.6-4.2 2-2.8 0.5-2.9 0.5-3.1 2-0.1 0.8-0.3 3.7-0.3 6.4 0 2.6-0.3 7.6-0.7 11-0.8 7.1-0.6 9.1 0.7 10.6 0.5 0.6 0.8 1.2 0.7 1.5-0.3 0.5-2.1 0.7-2.5 0.3zm8.3-34.4c1.5-1.1 2.8-4.7 3.7-9.7 0.5-3.2 0.7-6.4 0.6-14.5-0.1-10.1-0.2-10.4-1.3-12.7-2.3-4.9-5.1-6.5-7.4-4.1l-1 1.1-0.3 16.8c-0.1 9.2-0.4 17-0.6 17.3-0.6 0.9 0.2 5.3 1.2 6.2 1 1 3.4 0.8 5.1-0.5zm35.5 26.4c0-0.6 0.4-0.9 1.5-1.1 1-0.2 1.5-0.5 1.5-1 0-0.4-1.4-3.7-3.2-7.4-5-10.5-10.6-24.2-13.5-32.9-0.6-1.7-0.9-2.2-1.1-1.7-0.2 0.4-0.7 5.1-1 10.5-0.4 5.4-0.9 10.2-1.1 10.7-0.6 1.2-2.2 1.5-4.8 0.9-2.1-0.5-2.2-0.6-2-1.7 0.7-2.9 1.6-13.6 1.8-21.5 0.3-8.3-0.4-30.1-0.9-31.6-0.1-0.4-0.7-0.8-1.3-1-2-0.5-0.3-1.1 3.7-1.3 2.5-0.1 4-0.1 4.2 0.2 0.2 0.3 1.2 0.1 2.9-0.6 3-1.2 4.2-1.3 6.2-0.4 2.3 0.9 2.5 2.4 2.6 13.5 0 10.3-0.4 12.9-2.5 14.9-1.3 1.2-3.9 2.2-5.7 2.2-0.8 0-1.6 0.2-1.7 0.4-0.5 0.9 9.8 26.9 15.1 38.2 1.8 3.7 3.3 7.1 3.4 7.5 0.1 0.4 1.1 1.4 2.2 2.1 2.5 1.7 2 2.1-2.7 2.1-3.2 0-3.6-0.1-3.6-0.8zm-9.5-51.4c2.1-0.9 2.9-2.5 3.5-6.7 0.6-4.3 0.2-17.6-0.5-18.9-1.3-2.4-5.4-2.7-7.7-0.7-1.1 1-1.2 1.2-1.3 5.9-0.1 2.7 0 8.7 0.2 13.3l0.3 8.4 2-0.3c1.1-0.2 2.7-0.6 3.6-0.9zm70.8 48.5c-0.2-0.1-1-0.3-1.6-0.4-1.7-0.4-1.5-1.1 0.3-1.1 0.8 0 1.5-0.2 1.5-0.5 0-0.9-1.8-18.1-2.4-23.1-0.3-2.8-0.8-7.6-0.9-10.5-0.2-3.3-0.5-5.4-0.8-5.5-0.3-0.1-3.1-0.5-6.3-0.8-5.5-0.6-5.9-0.6-6.4 0.1-0.3 0.4-0.5 0.9-0.5 1.1 0 0.2-1.3 3-2.8 6.2-1.6 3.2-3.1 7.2-3.5 8.8-0.8 3.7-1.5 4.4-3.9 4.4-2.4 0-3-0.9-2.6-4.3 0.2-1.7 1-3.9 3.1-8 1.5-3.1 4-9.1 5.4-13.2 5.4-15.8 10.1-26.9 12.3-28.9 0.9-0.8 1.5-1 3-0.9l1.9 0.1-0.1 8c-0.1 6.5 0.1 9.7 1 17.3 0.6 5.1 1.3 12 1.6 15.4 1 13 3.6 33.7 4.3 34.6 0.7 0.9-0.9 1.8-2.3 1.3zm-3.7-43.2c0-0.1-0.4-3-0.9-6.6-0.5-3.6-1-9.1-1.1-12.3-0.3-6.4-0.4-7.8-1-7.8-0.2 0-1.3 2.4-2.4 5.3-1.1 2.9-3 7.9-4.2 11.1-1.2 3.2-2.3 6.7-2.4 7.7l-0.3 1.8 2.1 0.3c1.2 0.2 2.4 0.3 2.8 0.4 0.8 0.2 7.4 0.3 7.4 0.1zm29.7 37.8c-0.1-0.2 0.2-0.4 0.7-0.4 1.5 0 2.2-0.6 1.8-1.5-0.2-0.5-1.5-3.7-2.9-7.1-1.4-3.5-4.1-10.5-6-15.7-1.9-5.2-3.6-9.8-3.9-10.4-0.5-0.9-0.6 0-0.8 7-0.2 7.4-0.2 8.1 0.6 9.3 1.1 1.7 0.5 2-4 2-5.5 0-9.1-1.3-5.6-2 0.7-0.1 1.5-0.6 1.8-1.1 1-1.8 1.5-25.1 1-39l-0.3-6.8-1.6 0c-3.5 0-2.1-1.5 1.8-1.9 4.5-0.5 5.1-0.7 7.6-2.4 2.2-1.5 2.6-1.6 3.7-1.2 0.7 0.2 2.2 1.3 3.3 2.3l2 1.9-0.1 5.8c-0.2 8.3-0.8 13.2-2 15.9-0.9 1.9-1.4 2.4-3.1 3.2-1.3 0.6-2.5 0.8-3.3 0.6-1-0.2-1.2-0.1-1.2 0.6 0 1.5 10.4 29.5 13.2 35.7 1.5 3.4 1.6 3.4 4.2 3.9 0.9 0.1 1.6 0.4 1.6 0.6 0 1-7.9 1.8-8.4 0.9zm-7-43.4c3.3-1.7 4-3.9 4.7-14.3 0.6-8.9 0.4-9.7-2.8-11.9-1.6-1.1-1.9-1.1-2.9-0.6-1.7 0.9-2.5 3.2-3.1 8.4-0.5 4.5-0.3 16.6 0.3 18.2 0.3 0.8 2.4 0.9 3.8 0.2zm-156.1 29.8c-2.8-0.5-4.3-1.4-5.2-3-0.2-0.4-0.8-3.4-1.3-6.5-0.9-6.2-1.1-20.7-0.4-25.6 0.7-4.8 1-12.2 0.5-12.5-0.3-0.2-0.5-0.7-0.5-1.1 0-0.7 0.3-0.8 2.5-0.8 1.4 0 3.4 0.2 4.4 0.4 3.2 0.7 3.3 0.7 2.2 1.9-1.5 1.6-2.2 6.1-2.7 17.4-0.5 11-0.3 18.8 0.5 21.6 0.7 2.6 3.4 6.7 4.6 7.2 0.6 0.2 2.6 0.2 5.2 0 5.3-0.5 6.8-1.4 8.3-4.7l1.1-2.4 0-18.6c0-10.2-0.1-19.1-0.3-19.7-0.2-0.7-0.8-1.3-1.6-1.6-2.9-1.1-0.7-1.9 2.7-1 1.8 0.5 1.9 0.5 1 1.8-0.5 0.8-0.6 1.9-0.2 6.8 0.5 6.4 0.2 25.5-0.5 30.9-0.6 5.1-2.7 8.2-6.1 9.3-2.2 0.8-11 1-14.4 0.3zm87.7-3.1c-1.8-0.8-2.4-1.8-3.8-6.1-2-5.9-2-18.2 0.1-26.6 1.6-6.4 4.4-10.9 8.1-13 3.5-2 5.3-2.1 8.7-0.5 2.6 1.2 2.9 1.5 4 3.8l1.2 2.5 0 11c0 9.4-0.2 11.7-0.9 15.3-1.4 6.7-4.1 11.5-7.2 13.1-1.9 1-8.3 1.2-10.1 0.4zm11.1-2.8c2.1-2.1 4.2-6.5 5.1-10.4 0.9-4.1 1.6-19.1 1.1-22.9-0.5-3.6-2.3-7.3-3.8-7.7-1.5-0.4-3.7 0.2-5.4 1.3-2.8 1.9-5.3 8.5-6.7 17.8-0.7 4.6-0.7 5.3-0.1 9.9 0.9 6 2.1 9.5 4.3 11.9 2.2 2.4 3.2 2.4 5.5 0.2zM5.5 1019.9c-2-2-0.4-5.3 5-10.1 6.2-5.4 11.2-8.1 13.1-6.9 1.3 0.8 0.6 2.7-1.7 4.9-2.3 2.2-4.8 6.6-4.8 8.4 0 1.1 0.1 1.1 1.4 0.9 0.7-0.1 2.5-1.1 3.9-2 2.7-1.9 4.1-2.2 4.6-1 0.4 1-2.4 3.4-5.9 5.2-3.6 1.8-4.9 1.8-6.1 0-0.5-0.8-0.9-1.8-0.9-2.3 0-0.7-0.3-0.5-1.8 0.9-3 2.9-5.2 3.5-6.8 1.9zm4.6-3.4c0.9-0.7 3.1-2.7 4.8-4.5 2.9-3.1 4-4.8 3.4-5.4-0.7-0.7-8.5 6.4-9.8 9-1.4 2.7-1.1 2.8 1.6 0.9z" fill="#000"/></g></svg>